<svg width="200" height="200" viewBox="0 0 200 200" fill="none" xmlns="http://www.w3.org/2000/svg">
<path d="M200 0H0V200H200V0Z" fill="#CC0000"/>
<path d="M138.161 113.299H53.6958V95.099H137.971C142.706 95.099 145.925 97.5381 145.925 104.293C146.115 110.86 142.706 113.299 138.161 113.299ZM53.6958 61.5134H135.888C140.623 61.5134 143.842 63.9526 143.842 70.7072C143.842 77.4619 140.433 79.901 135.888 79.901H53.6958V61.5134ZM158.803 87.2186C163.917 81.965 163.917 76.1485 163.917 70.332C163.917 54.0082 159.75 42 135.131 42H34.1894L34 133H135.32C159.561 133 166 121.367 166 104.856C165.811 96.6 162.591 89.6577 158.803 87.2186Z" fill="white"/>
<path d="M75.2785 149.391C75.2785 147.314 74.5104 147.257 73.6854 147.115H63.6432C62.5337 147.115 61.9078 147.399 61.9078 149.106V152.89C61.8794 154.284 62.3915 154.91 63.5009 154.967L73.7423 154.995C74.5673 154.995 75.307 154.284 75.307 152.89V149.391H75.2785ZM78.2656 153.8C78.2656 156.474 76.5303 157.982 73.913 157.982H63.3303C60.7699 157.982 58.9492 156.361 58.9492 153.8V148.139C59.1484 145.892 60.8268 144.156 63.3303 144.156H73.8846C76.7579 144.156 78.2372 145.977 78.2372 148.537V153.8H78.2656Z" fill="white"/>
<path d="M127.765 154.967H139.771C140.596 154.967 141.193 154.085 141.193 153.402V148.708C141.193 147.855 140.368 147.115 139.657 147.115H127.794V154.967H127.765ZM124.778 144.156H139.742C142.302 144.156 144.123 145.749 144.123 148.338V153.999C143.952 156.247 142.246 157.982 139.742 157.982H124.778V144.156Z" fill="white"/>
<path d="M108.193 151.668L110.071 148.14C110.071 148.14 110.583 147.088 110.981 147.088C111.38 147.088 111.892 148.112 111.892 148.112L113.741 151.639H108.193V151.668ZM114.879 147.344C113.997 145.608 112.916 144.129 110.981 144.129C108.961 144.129 108.051 145.58 107.112 147.344L101.479 158.04H104.865C104.865 158.04 105.861 156.163 106.998 154H114.936L117.155 158.04H120.426L114.879 147.344Z" fill="white"/>
<path d="M90.9245 154.171C90.9245 154.171 91.3797 155.082 91.778 155.082C92.1763 155.082 92.603 154.171 92.603 154.171L97.8944 144.157H101.28L95.6469 154.854C94.7082 156.646 93.8263 158.097 91.8064 158.097C89.8719 158.097 88.8478 156.646 87.9659 154.911L82.3047 144.129H85.69L90.9245 154.171Z" fill="white"/>
<path d="M49.6466 154.967H36.9586V152.207H49.6181C50.3293 152.207 50.813 152.577 50.813 153.601C50.8414 154.597 50.3293 154.967 49.6466 154.967ZM36.9586 147.115H49.3052C50.0164 147.115 50.5 147.485 50.5 148.509C50.5 149.533 49.988 149.903 49.3052 149.903H36.9586V147.115ZM52.7474 151.012C53.5155 150.216 53.5155 149.334 53.5155 148.452C53.5155 145.977 52.8897 144.156 49.1914 144.156H34.0284L34 157.954H49.2198C52.8612 157.954 53.8285 156.19 53.8285 153.686C53.8 152.435 53.3164 151.382 52.7474 151.012Z" fill="white"/>
<path d="M153.767 151.668L155.644 148.14C155.644 148.14 156.156 147.088 156.554 147.088C156.953 147.088 157.465 148.112 157.465 148.112L159.342 151.639H153.767V151.668ZM160.452 147.344C159.57 145.608 158.489 144.129 156.554 144.129C154.535 144.129 153.624 145.58 152.685 147.344L147.053 158.04H150.438C150.438 158.04 151.434 156.163 152.572 154H160.509L162.728 158.04H165.999L160.452 147.344Z" fill="white"/>
</svg>
